<svg xmlns="http://www.w3.org/2000/svg" width="200" height="200" fill="none"><path stroke="#FF4D00" stroke-miterlimit="10" stroke-width=".896" d="M194.44 100.8c0-6.782-5.498-12.28-12.28-12.28-6.782 0-12.28 5.498-12.28 12.28 0 6.782 5.498 12.28 12.28 12.28 6.782 0 12.28-5.498 12.28-12.28Z" opacity=".1"/><path stroke="#FF4D00" stroke-miterlimit="10" stroke-width=".896" d="M172.36 83.44h-.04c-9.588 0-17.36 7.773-17.36 17.36v.04c0 9.588 7.772 17.36 17.36 17.36h.04c9.588 0 17.36-7.772 17.36-17.36v-.04c0-9.587-7.772-17.36-17.36-17.36Z" opacity=".18"/><path stroke="#FF4D00" stroke-miterlimit="10" stroke-width=".896" d="M184.92 100.82c0-12.404-10.056-22.46-22.46-22.46-12.404 0-22.46 10.056-22.46 22.46 0 12.405 10.056 22.46 22.46 22.46 12.404 0 22.46-10.055 22.46-22.46Z" opacity=".26"/><path stroke="#FF4D00" stroke-miterlimit="10" stroke-width=".896" d="M180.2 100.841c0-15.222-12.339-27.56-27.56-27.56-15.221 0-27.56 12.338-27.56 27.56 0 15.22 12.339 27.56 27.56 27.56 15.221 0 27.56-12.34 27.56-27.56Z" opacity=".35"/><path stroke="#FF4D00" stroke-miterlimit="10" stroke-width=".896" d="M175.4 100.84c0-18.026-14.613-32.64-32.64-32.64-18.026 0-32.64 14.614-32.64 32.64 0 18.027 14.614 32.64 32.64 32.64 18.027 0 32.64-14.613 32.64-32.64Z" opacity=".43"/><path stroke="#FF4D00" stroke-miterlimit="10" stroke-width=".896" d="M170.64 100.84c0-20.832-16.888-37.72-37.72-37.72-20.832 0-37.72 16.888-37.72 37.72 0 20.833 16.888 37.72 37.72 37.72 20.832 0 37.72-16.887 37.72-37.72Z" opacity=".51"/><path stroke="#FF4D00" stroke-miterlimit="10" stroke-width=".896" d="M123.08 58h-.04c-23.638 0-42.8 19.162-42.8 42.8v.04c0 23.638 19.162 42.8 42.8 42.8h.04c23.638 0 42.8-19.162 42.8-42.8v-.04c0-23.638-19.162-42.8-42.8-42.8Z" opacity=".59"/><path stroke="#FF4D00" stroke-miterlimit="10" stroke-width=".896" d="M113.2 52.92h-.04c-26.443 0-47.88 21.436-47.88 47.88v.04c0 26.443 21.437 47.88 47.88 47.88h.04c26.444 0 47.88-21.437 47.88-47.88v-.04c0-26.444-21.436-47.88-47.88-47.88Z" opacity=".67"/><path stroke="#FF4D00" stroke-miterlimit="10" stroke-width=".896" d="M156.32 100.82c0-29.26-23.72-52.98-52.98-52.98-29.26 0-52.98 23.72-52.98 52.98 0 29.26 23.72 52.98 52.98 52.98 29.26 0 52.98-23.72 52.98-52.98Z" opacity=".75"/><path stroke="#FF4D00" stroke-miterlimit="10" stroke-width=".896" d="M151.56 100.84c0-32.077-26.003-58.08-58.08-58.08S35.4 68.763 35.4 100.84c0 32.076 26.003 58.08 58.08 58.08s58.08-26.004 58.08-58.08Z" opacity=".84"/><path stroke="#FF4D00" stroke-miterlimit="10" stroke-width=".896" d="M146.8 100.84c0-34.883-28.278-63.16-63.16-63.16s-63.16 28.277-63.16 63.16c0 34.882 28.278 63.16 63.16 63.16s63.16-28.278 63.16-63.16Z" opacity=".92"/><path stroke="#FF4D00" stroke-miterlimit="10" stroke-width=".896" d="M142 100.8c0-37.688-30.552-68.24-68.24-68.24-37.688 0-68.24 30.552-68.24 68.24 0 37.688 30.552 68.24 68.24 68.24 37.688 0 68.24-30.552 68.24-68.24Z"/></svg>